<svg id="Layer_1" data-name="Layer 1" xmlns="http://www.w3.org/2000/svg" xmlns:xlink="http://www.w3.org/1999/xlink" width="1791" height="902" viewBox="0 0 1791 902"><defs><style>.cls-1,.cls-3{fill:none;}.cls-2{clip-path:url(#clip-path);}.cls-3{stroke:#fff;stroke-miterlimit:10;stroke-width:6px;}.cls-4{fill:#fff;}.cls-5{clip-path:url(#clip-path-2);}</style><clipPath id="clip-path"><rect class="cls-1" x="-0.5" y="-0.5" width="1791" height="902"/></clipPath><clipPath id="clip-path-2"><rect class="cls-1" x="25.5" y="1036.5" width="1791" height="902"/></clipPath><image id="image" width="2592" height="3888" xlink:href="../../../Downloads/16.jpg"/></defs><title>Artboard 1</title><g class="cls-2"><image width="6000" height="4000" transform="translate(-25 -213.9499) rotate(-0.716) scale(0.3074)" xlink:href="../../Billeder/Maldiverne,%20Sri%20Lanka%20%26%20Bali/IMG_0815.JPG"/></g><rect class="cls-3" x="85" y="77" width="1620" height="746"/><path class="cls-4" d="M855.0176,451.7373q-17.2485,9.92-32.4361,10.0977-29.8476,0-47.18-21.1778-17.3365-21.1758-17.1563-56.9189V356.9316q-.18-35.56,17.1563-56.83,17.3319-21.2652,47.18-21.2666,15.0118,0,30.649,7.5952,15.6357,7.5981,18.1391,21.8921l-.7148,4.11-4.11-1.6084q-2.5049-12.5068-16.352-18.9433a65.0868,65.0868,0,0,0-27.6109-6.4336q-26.6309,0-42.2651,19.3007-15.64,19.3008-15.6372,52.0049v26.9854q0,32.8842,15.6372,52.1836,15.6357,19.3008,42.2651,19.3008,13.4034,0,27.4322-8.042,14.0272-8.0421,21.7134-24.4834l3.3955-4.4678,1.2509,5.1826Q872.26,441.8208,855.0176,451.7373Zm-92.6616-91.41a.5176.5176,0,0,0,.1787-.3574l23.2324,5.8975v.1787Zm0,33.5977v-.3574l77.5605-3.7529.1787.3574Zm.8935,0v-.3574L808.2847,412.69v.1787Zm.7149-.1787a.5288.5288,0,0,0-.3575-.1787l21.8028-27.7.3574.1787Zm.8935-61.2979v-.3574l48.0733-8.3994.1787.3574Zm11.2588,100.0782a.16.16,0,0,0-.1787-.1787L808.106,412.69l.1787.1787Zm9.65-66.48a.5284.5284,0,0,0-.3574-.1787l27.3427-42.1758.3575.3574Zm0,0v-.1787l54.3281,23.9473v.3574Zm22.5176,46.8223a.1583.1583,0,0,1,.1787-.1787l-22.5176-46.8223-.1787.1787ZM786.8394,297.957l.3574-.3574,26.0918,26.0918-.1787.3574Zm18.4072,157.2657c-.12-.1172-.24-.2373-.3574-.3575l3.038-42.1757.3575.1787Zm0,0a.5058.5058,0,0,1-.1787-.3575l19.3008-34.4912.1787.3574Zm3.0381-42.3545-.1787-.1787,31.8105-22.875.1787.3574Zm0,0V412.69l16.4414,7.6845-.1787.3574Zm4.8252-88.8194c-.12-.1172-.24-.2373-.3575-.3574l34.67-34.4912.1787.3574Zm0,0a.5054.5054,0,0,1-.1787-.3574l51.6474-19.3008v.3574Zm0,0a.5162.5162,0,0,1,.1787-.3574l26.9853,66.1231-.1787.3574Zm0,0a.5162.5162,0,0,1,.1787-.3574l32.1679,22.6963-.1787.3574Zm11.4375,96.6826a.529.529,0,0,0-.1787-.3574l15.3691-30.56.3574.3574Zm20.73,33.0616a.5174.5174,0,0,0,.1787-.3575L824.9048,420.374l-.3574.3574Zm-5.1826-63.6211c-.12-.1172-.24-.2373-.3574-.3574l5.1826-43.4268.3574.3574Zm-.1787-.3574-.1787-.1788L864.4,373.5518l.1787.1787Zm5.3613,63.9785.3575-.3575-5.3614-63.621-.1787.3574Zm-5.1826-63.6211v-.3574l29.666,19.8369v.3574Zm5.1826-43.4268c-.12-.1172-.24-.2373-.3574-.3574l19.48-41.9971.1787.3574Zm0,107.0479a.5058.5058,0,0,1-.1787-.3575l24.3047-43.7841.3574.3574Zm0-107.0479a.5174.5174,0,0,0,.1787-.3574l19.48,27.1641-.3574.1787Zm19.3008,26.9854a.5174.5174,0,0,1,.3574-.1787V304.3906l-.3574.3574Zm0,0a.5174.5174,0,0,1,.3574-.1787l7.6846,54.8642-.3574.3574Z"/><path class="cls-4" d="M1022.9414,375.4033l36.1,82.7432L1131.24,292.66l4.4688-4.8252,5.0039,4.8252v174.958l-3.3965,3.2168-3.0371-3.2168V303.2041h-.3574L1061.543,467.6182h-5.0039L984.52,303.9189h-.3574V467.6182l-3.2168,3.2168-3.2168-3.2168V292.66l4.2891-4.8252,5.0039,4.8252Q991.4863,303.0269,1022.9414,375.4033Zm.18,11.4375-.18-.1787L981.66,459.2188l.3574.3574ZM999.709,327.6875c-.1192-.1172-.24-.2373-.3574-.3574l-15.3692,40.21.18.3575Zm-15.5469,40.21a.5158.5158,0,0,0,.1777-.3575l38.959,19.1221-.1777.1787Zm0,25.3769a.5155.5155,0,0,1,.3574-.1787l19.4785,27.8789-.3574.3574Zm0,62.37v-.3574L1051,455.1084v.3574Zm19.4785-34.3125a.519.519,0,0,0,.18-.3574l49.3242,34.1338-.18.3574Zm62.9063,31.8106v-.3574l29.4883-2.8594.1777.3574Zm24.1269-53.4346-.18-.1787,44.6778-50.9326.18.3574Zm0,0a.1581.1581,0,0,1,.1778-.1787l44.6777,21.4453-.1777.3574Zm5.5391,50.5752a.5138.5138,0,0,1,.18-.3574l-5.3614-50.3965-.3574.1787Zm0,0a.5082.5082,0,0,1-.1777-.3574l39.1367-28.9512.18.3574Zm0,0v-.3574l39.3164,16.084-.1777.3574Zm39.1387-101.3291v-.3574l-23.4121,4.11v.1787Z"/><path class="cls-4" d="M867.5029,490.4645c1.4259-3.8238,6.7146-17.128,18.8629-59.3275,6.9491-24.05,14.4361-51.2344,22.0907-78.1363,11.2754,3.3216,22.9145,9.7931,33.7334,17.9513a78.1543,78.1543,0,0,1,24.8011,31.8007c3.9568,9.9918,4.35,17.7612,1.4373,27.4331-2.0737,6.749-5.3147,12.31-10.1342,16.4187a20.6561,20.6561,0,0,1-17.8061,4.7488l-.0866.2954a33.8786,33.8786,0,0,1,14.763,18.1455c2.8,7.7909,2.9592,15.5776.5171,25.0529-3.586,13.68-9.6625,25.4066-18.8089,31.9048-9.1053,6.4983-20.2337,6.7429-32.4111-1.3187A152.9493,152.9493,0,0,1,867.5029,490.4645Zm34.1513-103.2736c.0291-.102.0585-.2063.0881-.311a169.5909,169.5909,0,0,1,24.4706,13.15l-.09.2982A170.267,170.267,0,0,0,901.6542,387.1909Zm-10.3419,40.7367a.5064.5064,0,0,1-.0308-.3338c10.9864-9.1886,23.0317-19.3158,34.8082-27.6258l.033.36C914.3468,408.64,902.3005,418.7585,891.3123,427.9276ZM911.54,360.5054a.4936.4936,0,0,0,.2133-.2683c10.7973,28.5329,21.82,60.562,32.0452,88.3852l-.2023.2418C933.3608,421.023,922.3342,389.0029,911.54,360.5054Zm-4.3882,73.93c5.1339,2.2338,10.353,4.5884,15.5449,6.9243,12.0683,5.48,21.5138,6.3662,28.266,3.664,6.7815-2.6991,11.1915-8.7983,13.848-17.38,2.6074-8.5707,2.2058-15.8064-1.3881-24.3965-3.6344-8.3725-10.7623-18.5256-22.8743-27.2218a120.299,120.299,0,0,0-29.0083-15.52c-6.641,22.9577-13.1942,46.2668-19.4212,67.7287C893.3545,428.713,898.1808,430.5286,907.1519,434.435Zm-26.1028,30.81c-3.0363,9.7176-5.94,18.5383-8.6759,26.1359A157.4186,157.4186,0,0,0,906.154,520.06c11.0844,6.9028,20.904,6.8045,28.7821,1.4932,7.9116-5.3143,13.2622-14.9843,16.4369-26.8145,2.5561-9.6832,2.0881-17.5977-1.5058-25.457-3.6043-7.82-10.615-14.087-21.6118-18.9244-12.7308-5.56-25.8739-11.8012-37.7351-16.63C889.7012,436.4667,886.3654,448.1408,881.0491,465.245Zm-5.1049,31.44-.0637-.2108c8.2848-3.159,17.8459-10.2654,27.8329-19.05l.1537.4217C893.85,486.5626,884.2568,493.5972,875.9442,496.6846Zm19.2127-61.0285a.3036.3036,0,0,1,.2778-.0464c2.831,13.5829,5.719,27.68,8.6424,42.011q-.1052.1124-.21.2246C900.92,463.4462,898.0091,449.2872,895.1569,435.6561Zm30.9658-35.3283c-.0534-.1394-.1058-.2805-.1561-.4213,5.2584-9.11,10.4641-17.76,15.499-25.3721q.075.2194.1495.4388C936.5836,382.5779,931.38,391.2222,926.1227,400.3278Zm0,0a.5784.5784,0,0,0-.033-.36,121.6445,121.6445,0,0,1,15.8859-3.1616l.0746.2125A122.5886,122.5886,0,0,0,926.1227,400.3278Zm0,0a.3964.3964,0,0,1,.2134-.2365c12.1637,12.615,24.03,26.2323,34.1362,36.8853q-.0887.1-.1774.2C950.1688,426.53,938.29,412.9243,926.1227,400.3278Zm-22.2556,77.5175c-.052-.1393-.1039-.2808-.1537-.4217,7.9867-8.4046,16.2455-17.9685,24.3413-27.325q.1.1295.2007.2589C920.1472,459.7672,911.8719,469.39,903.8671,477.8453Zm0,0a.5543.5543,0,0,1-.0325-.356,204.9823,204.9823,0,0,0,23.571-6.9391l.078.2033A204.27,204.27,0,0,1,903.8671,477.8453Zm0,0c.0293-.0952.059-.1927.0887-.29,15.1284,11.2347,31.2164,21.4954,45.3126,25.5044l-.0827.3106C935.0818,499.3652,918.9918,489.0978,903.8671,477.8453Zm0,0a.3718.3718,0,0,1,.21-.2246c8.7485,16.2389,17.8151,32.7967,26.6294,46.91l-.2116.28C921.6766,510.6689,912.6105,494.093,903.8671,477.8453ZM942.05,397.0189a.1714.1714,0,0,0-.0746-.2125c2.2628-5.8477,4.49-11.45,6.6716-16.7258l.1438.4359C946.588,385.7151,944.3373,391.2436,942.05,397.0189Zm0,0a.2957.2957,0,0,1,.2782.0144c6.631,15.0141,12.9516,29.4176,18.6886,41.6621l-.1763.2021C955.07,426.5853,948.7147,412.1033,942.05,397.0189Zm.3958.09c.0276-.09.0574-.1813.0859-.2731a84.8585,84.8585,0,0,1,21.62,5.9758q.0134.1515.0263.3028A85.6032,85.6032,0,0,0,942.446,397.1091Zm-14.9624,73.6444c.029-.1.085-.1364.168-.1027q.3859-10.2066.7715-20.3912l-.1677.0979Q927.87,460.5441,927.4836,470.7535Zm0,0-.078-.2033a197.7388,197.7388,0,0,0,21.7464-3.06l.03.3265A194.415,194.415,0,0,1,927.4836,470.7535Zm0,0,.045-.1529c7.5336,12.1611,14.9344,23.514,21.8527,32.4681l-.1956.3014C942.31,494.3455,934.9617,482.95,927.4836,470.7535Z"/><line class="cls-4" x1="808" y1="82" x2="982" y2="304"/><line class="cls-4" x1="865" y1="304" x2="1051" y2="82"/><line class="cls-4" x1="933" y1="366" x2="914" y2="82"/><line class="cls-4" x1="1015" y1="357" x2="1096" y2="82"/><line class="cls-4" x1="1091" y1="400" x2="1018" y2="82"/><line class="cls-4" x1="799" y1="279" x2="776" y2="82"/><line class="cls-4" x1="823" y1="279" x2="877" y2="171"/><line class="cls-4" x1="1035" y1="288" x2="970" y2="178"/><line class="cls-4" x1="952" y1="265" x2="994" y2="225"/><line class="cls-4" x1="909" y1="353" x2="886" y2="279"/><g class="cls-5"><use transform="matrix(0.3553, 0, 0, -0.312, 920, 2073.9527)" xlink:href="#image"/><use transform="translate(1 859) scale(0.3553 0.312)" xlink:href="#image"/></g></svg>