<svg id="Layer_1" data-name="Layer 1" xmlns="http://www.w3.org/2000/svg" xmlns:xlink="http://www.w3.org/1999/xlink" width="1787" height="902" viewBox="0 0 1787 902"><defs><style>.cls-1,.cls-3{fill:none;}.cls-2{clip-path:url(#clip-path);}.cls-3{stroke:#fff;stroke-miterlimit:10;stroke-width:6px;}.cls-4{fill:#fff;}</style><clipPath id="clip-path"><rect class="cls-1" x="-1.5" y="0.5" width="1791" height="902"/></clipPath><image id="image" width="2592" height="3888" xlink:href="../../../Downloads/16.jpg"/></defs><title>Artboard 2</title><g class="cls-2"><use transform="matrix(0.3553, 0, 0, -0.312, 893, 1037.9527)" xlink:href="#image"/><use transform="translate(-26 -177) scale(0.3553 0.312)" xlink:href="#image"/></g><rect class="cls-3" x="84" y="78" width="1620" height="746"/><path class="cls-4" d="M766.0176,456.7373q-17.2485,9.92-32.4361,10.0977-29.8476,0-47.18-21.1778-17.3365-21.1758-17.1563-56.9189V361.9316q-.18-35.56,17.1563-56.83,17.3319-21.2652,47.18-21.2666,15.0118,0,30.649,7.5952,15.6357,7.5981,18.1391,21.8921l-.7148,4.11-4.11-1.6084q-2.5049-12.5068-16.352-18.9433a65.0868,65.0868,0,0,0-27.6109-6.4336q-26.6309,0-42.2651,19.3007-15.64,19.3008-15.6372,52.0049v26.9854q0,32.8842,15.6372,52.1836,15.6357,19.3008,42.2651,19.3008,13.4034,0,27.4322-8.042,14.0272-8.0421,21.7134-24.4834l3.3955-4.4678,1.2509,5.1826Q783.26,446.8208,766.0176,456.7373Zm-92.6616-91.41a.5176.5176,0,0,0,.1787-.3574l23.2324,5.8975v.1787Zm0,33.5977v-.3574l77.5605-3.7529.1787.3574Zm.8935,0v-.3574L719.2847,417.69v.1787Zm.7149-.1787a.5288.5288,0,0,0-.3575-.1787l21.8028-27.7.3574.1787Zm.8935-61.2979v-.3574l48.0733-8.3994.1787.3574Zm11.2588,100.0782a.16.16,0,0,0-.1787-.1787L719.106,417.69l.1787.1787Zm9.65-66.48a.5284.5284,0,0,0-.3574-.1787l27.3427-42.1758.3575.3574Zm0,0v-.1787l54.3281,23.9473v.3574Zm22.5176,46.8223a.1583.1583,0,0,1,.1787-.1787l-22.5176-46.8223-.1787.1787ZM697.8394,302.957l.3574-.3574,26.0918,26.0918-.1787.3574Zm18.4072,157.2657c-.12-.1172-.24-.2373-.3574-.3575l3.038-42.1757.3575.1787Zm0,0a.5058.5058,0,0,1-.1787-.3575l19.3008-34.4912.1787.3574Zm3.0381-42.3545-.1787-.1787,31.8105-22.875.1787.3574Zm0,0V417.69l16.4414,7.6845-.1787.3574Zm4.8252-88.8194c-.12-.1172-.24-.2373-.3575-.3574l34.67-34.4912.1787.3574Zm0,0a.5054.5054,0,0,1-.1787-.3574l51.6474-19.3008v.3574Zm0,0a.5162.5162,0,0,1,.1787-.3574l26.9853,66.1231-.1787.3574Zm0,0a.5162.5162,0,0,1,.1787-.3574l32.1679,22.6963-.1787.3574Zm11.4375,96.6826a.529.529,0,0,0-.1787-.3574l15.3691-30.56.3574.3574Zm20.73,33.0616a.5174.5174,0,0,0,.1787-.3575L735.9048,425.374l-.3574.3574Zm-5.1826-63.6211c-.12-.1172-.24-.2373-.3574-.3574l5.1826-43.4268.3574.3574Zm-.1787-.3574-.1787-.1788L775.4,378.5518l.1787.1787Zm5.3613,63.9785.3575-.3575-5.3614-63.621-.1787.3574Zm-5.1826-63.6211v-.3574l29.666,19.8369v.3574Zm5.1826-43.4268c-.12-.1172-.24-.2373-.3574-.3574l19.48-41.9971.1787.3574Zm0,107.0479a.5058.5058,0,0,1-.1787-.3575l24.3047-43.7841.3574.3574Zm0-107.0479a.5174.5174,0,0,0,.1787-.3574l19.48,27.1641-.3574.1787Zm19.3008,26.9854a.5174.5174,0,0,1,.3574-.1787V309.3906l-.3574.3574Zm0,0a.5174.5174,0,0,1,.3574-.1787l7.6846,54.8642-.3574.3574Z"/><path class="cls-4" d="M933.9414,380.4033l36.1,82.7432L1042.24,297.66l4.4688-4.8252,5.0039,4.8252v174.958l-3.3965,3.2168-3.0371-3.2168V308.2041h-.3574L972.543,472.6182h-5.0039L895.52,308.9189h-.3574V472.6182l-3.2168,3.2168-3.2168-3.2168V297.66l4.2891-4.8252,5.0039,4.8252Q902.4863,308.0269,933.9414,380.4033Zm.18,11.4375-.18-.1787L892.66,464.2188l.3574.3574ZM910.709,332.6875c-.1192-.1172-.24-.2373-.3574-.3574l-15.3692,40.21.18.3575Zm-15.5469,40.21a.5158.5158,0,0,0,.1777-.3575l38.959,19.1221-.1777.1787Zm0,25.3769a.5155.5155,0,0,1,.3574-.1787l19.4785,27.8789-.3574.3574Zm0,62.37v-.3574L962,460.1084v.3574Zm19.4785-34.3125a.519.519,0,0,0,.18-.3574l49.3242,34.1338-.18.3574Zm62.9063,31.8106v-.3574l29.4883-2.8594.1777.3574Zm24.1269-53.4346-.18-.1787,44.6778-50.9326.18.3574Zm0,0a.1581.1581,0,0,1,.1778-.1787l44.6777,21.4453-.1777.3574Zm5.5391,50.5752a.5138.5138,0,0,1,.18-.3574l-5.3614-50.3965-.3574.1787Zm0,0a.5078.5078,0,0,1-.1777-.3574l39.1367-28.9512.18.3574Zm0,0v-.3574l39.3164,16.084-.1777.3574Zm39.1387-101.3291v-.3574l-23.4121,4.11v.1787Z"/><path class="cls-4" d="M778.5029,495.4645c1.4256-3.8242,6.7149-17.1284,18.8629-59.3274,6.9491-24.05,14.4361-51.2345,22.0907-78.1364,11.2754,3.3214,22.9145,9.7929,33.7334,17.9513a78.1567,78.1567,0,0,1,24.8011,31.8007c3.9566,9.9923,4.35,17.7616,1.4373,27.4331-2.0741,6.75-5.3144,12.3108-10.1342,16.4187a20.6572,20.6572,0,0,1-17.8061,4.7489l-.0866.2954a33.8683,33.8683,0,0,1,14.763,18.1455c2.7995,7.7907,2.96,15.578.5171,25.0529-3.5857,13.6794-9.6628,25.4057-18.8089,31.9048-9.105,6.4973-20.2334,6.7434-32.4111-1.3188A152.9416,152.9416,0,0,1,778.5029,495.4645Zm34.1513-103.2736c.029-.1017.0591-.2057.0881-.311a169.5918,169.5918,0,0,1,24.4706,13.15l-.09.2982A170.2977,170.2977,0,0,0,812.6542,392.1909Zm-10.3419,40.7367a.5119.5119,0,0,1-.0308-.3338c10.9864-9.1885,23.0317-19.3157,34.8082-27.6258l.033.36C825.3469,413.64,813.3006,423.7585,802.3123,432.9276ZM822.54,365.5052a.4907.4907,0,0,0,.2133-.268c10.7973,28.5329,21.82,60.562,32.0452,88.3851q-.1011.1208-.2023.2417C844.3608,426.0228,833.3342,394.0028,822.54,365.5052Zm-4.3882,73.93c5.1339,2.2339,10.353,4.5884,15.5449,6.9242,12.0682,5.48,21.5143,6.3654,28.266,3.6641,6.7812-2.7,11.1909-8.7976,13.848-17.38,2.6077-8.57,2.2057-15.8077-1.3881-24.3962-3.6342-8.3737-10.7625-18.5258-22.8743-27.2221a120.2925,120.2925,0,0,0-29.0083-15.52c-6.641,22.9578-13.1942,46.2669-19.4212,67.7289C804.355,433.7118,809.1805,435.528,818.1519,439.4349Zm-26.1028,30.81c-3.0362,9.7174-5.94,18.5385-8.6759,26.1356a157.4143,157.4143,0,0,0,33.7808,28.68c11.0843,6.9041,20.9035,6.8052,28.7821,1.4932,7.9122-5.3147,13.2626-14.9837,16.4369-26.8146,2.5559-9.6835,2.0882-17.5978-1.5058-25.457-3.6041-7.82-10.6149-14.0868-21.6118-18.9244-12.7308-5.56-25.8739-11.8013-37.7351-16.63C800.7012,441.4663,797.3651,453.14,792.0491,470.2451Zm-5.1049,31.44-.0637-.2107c8.2848-3.1589,17.8459-10.2656,27.8329-19.05q.0768.2109.1537.4216C804.85,491.5627,795.2568,498.5974,786.9442,501.6847Zm19.2127-61.0286a.3077.3077,0,0,1,.2778-.0465c2.831,13.583,5.7189,27.68,8.6424,42.011q-.1052.1128-.21.2247C811.92,468.4463,809.0091,454.2874,806.1569,440.6561Zm30.9658-35.3282c-.0527-.1391-.1059-.2807-.1561-.4213,5.2584-9.1106,10.4641-17.761,15.499-25.3723q.075.22.1495.4388C847.5837,387.5779,842.38,396.2224,837.1227,405.3279Zm0,0a.5834.5834,0,0,0-.033-.36,121.5849,121.5849,0,0,1,15.8859-3.1616l.0746.2125A122.6226,122.6226,0,0,0,837.1227,405.3279Zm0,0a.4.4,0,0,1,.2134-.2366c12.1638,12.615,24.03,26.2324,34.1362,36.8854q-.0887.1-.1774.2C861.1688,431.53,849.29,417.9243,837.1227,405.3279Zm-22.2556,77.5174c-.0525-.1391-.1041-.2807-.1537-.4216,7.9867-8.4048,16.2455-17.9685,24.3413-27.3249.0669.0865.1338.1724.2007.2587C831.1473,464.7672,822.872,474.39,814.8671,482.8453Zm0,0a.5546.5546,0,0,1-.0325-.3559,205.0364,205.0364,0,0,0,23.571-6.9391c.0261.0676.0521.1355.078.2032A204.2421,204.2421,0,0,1,814.8671,482.8453Zm0,0c.029-.0949.0594-.1928.0887-.29,15.1284,11.2347,31.2164,21.4952,45.3126,25.5043l-.0827.3107C846.0818,504.3654,829.9918,494.098,814.8671,482.8453Zm0,0a.369.369,0,0,1,.21-.2247c8.7485,16.2389,17.8151,32.7968,26.6294,46.91l-.2116.28C832.6766,515.6692,823.6105,499.093,814.8671,482.8453ZM853.05,402.0189a.1705.1705,0,0,0-.0746-.2125c2.2628-5.8478,4.49-11.45,6.6716-16.7258q.0719.2178.1438.4359C857.588,390.7147,855.3373,396.2435,853.05,402.0189Zm0,0a.2963.2963,0,0,1,.2782.0143c6.631,15.0144,12.9516,29.418,18.6886,41.6622l-.1763.2021C866.07,431.5853,859.7146,417.1034,853.05,402.0189Zm.3958.09c.0278-.0893.0571-.1819.0859-.273a84.8625,84.8625,0,0,1,21.62,5.9757l.0263.3028A85.6073,85.6073,0,0,0,853.446,402.1091Zm-14.9624,73.6444c.03-.1.0851-.1367.168-.1026q.3859-10.2069.7715-20.3913l-.1677.0979Q838.87,465.5441,838.4836,475.7535Zm0,0-.078-.2032a197.7866,197.7866,0,0,0,21.7464-3.06l.03.3265A194.415,194.415,0,0,1,838.4836,475.7535Zm0,0,.045-.153c7.5336,12.1611,14.9344,23.5141,21.8527,32.4682l-.1956.3014C853.31,499.3456,845.9617,487.95,838.4836,475.7535Z"/><line class="cls-4" x1="719" y1="87" x2="893" y2="309"/><line class="cls-4" x1="776" y1="309" x2="962" y2="87"/><line class="cls-4" x1="844" y1="371" x2="825" y2="87"/><line class="cls-4" x1="926" y1="362" x2="1007" y2="87"/><line class="cls-4" x1="1002" y1="405" x2="929" y2="87"/><line class="cls-4" x1="710" y1="284" x2="687" y2="87"/><line class="cls-4" x1="734" y1="284" x2="788" y2="176"/><line class="cls-4" x1="946" y1="293" x2="881" y2="183"/><line class="cls-4" x1="863" y1="270" x2="905" y2="230"/><line class="cls-4" x1="908" y1="354" x2="885" y2="280"/></svg>