<svg id="Layer_1" data-name="Layer 1" xmlns="http://www.w3.org/2000/svg" xmlns:xlink="http://www.w3.org/1999/xlink" width="1788" height="901" viewBox="0 0 1788 901"><defs><style>.cls-1,.cls-6{fill:none;}.cls-2{clip-path:url(#clip-path);}.cls-3{clip-path:url(#clip-path-2);}.cls-4{fill:#ff3f65;}.cls-5{opacity:0.69;}.cls-6{stroke:#fff;stroke-miterlimit:10;stroke-width:6px;}.cls-7{fill:#fff;}</style><clipPath id="clip-path"><rect class="cls-1" x="-0.5" y="-966.5" width="1791" height="902"/></clipPath><clipPath id="clip-path-2"><rect class="cls-1" x="-2" y="-2" width="1791" height="902"/></clipPath><image id="image" width="2592" height="3888" xlink:href="../../../Downloads/16.jpg"/></defs><title>Artboard 3</title><g class="cls-2"><use transform="matrix(0.3553, 0, 0, -0.312, 894, 70.9527)" xlink:href="#image"/><use transform="translate(-25 -1144) scale(0.3553 0.312)" xlink:href="#image"/></g><g class="cls-3"><rect class="cls-4" x="-1.0052" y="-2.2573" width="1790" height="903"/><image class="cls-5" width="6000" height="4000" transform="translate(-93.54 -45.9043) scale(0.315 0.315)" xlink:href="../../Billeder/tiovli_vinter/IMG_3487.JPG"/></g><rect class="cls-6" x="84" y="76" width="1620" height="746"/><path class="cls-7" d="M794.2973,539.4142q-21.9452,12.621-41.2679,12.8471-37.9747,0-60.0261-26.9441Q670.9464,498.3756,671.1757,452.9V418.7944q-.2292-45.2433,21.8276-72.3041,22.0514-27.0554,60.0261-27.0572,19.0992,0,38.9942,9.6633,19.893,9.6669,23.0782,27.8529l-.9095,5.23-5.23-2.0464q-3.1869-15.9121-20.8045-24.1013a82.8091,82.8091,0,0,0-35.1288-8.1854q-33.8822,0-53.7734,24.5561-19.8987,24.5562-19.8949,66.1651V452.9q0,41.8381,19.8949,66.3924,19.8931,24.556,53.7734,24.5561,17.0528,0,34.9015-10.2317,17.8467-10.2316,27.6256-31.15l4.32-5.6843,1.5916,6.5938Q816.2348,526.7977,794.2973,539.4142Zm-117.8921-116.3a.6583.6583,0,0,0,.2274-.4547l29.5583,7.5032v.2274Zm0,42.7458v-.4547l98.6792-4.7748.2274.4547Zm1.1369,0v-.4547L734.84,489.7342v.2274Zm.9095-.2273a.6728.6728,0,0,0-.4548-.2274l27.7393-35.2426.4548.2274Zm1.1368-77.9884V387.19l61.1629-10.6864.2274.4547Zm14.3244,127.3279a.203.203,0,0,0-.2274-.2273l40.9269-25.0109.2274.2274ZM706.1909,430.39a.6728.6728,0,0,0-.4548-.2274l34.7878-53.66.4548.4547Zm0,0v-.2274l69.1209,30.4678v.4547ZM734.84,489.9616a.2014.2014,0,0,1,.2273-.2274l-28.6488-59.5713-.2273.2274Zm-27.2846-146.2.4547-.4547,33.1963,33.1962-.2274.4547Zm23.4192,200.0868c-.1528-.1491-.3056-.3019-.4547-.4547l3.8653-53.66.4548.2274Zm0,0a.6434.6434,0,0,1-.2273-.4547l24.5561-43.8827.2274.4547Zm3.8654-53.887-.2274-.2274,40.4721-29.1035.2274.4547Zm0,0v-.2274l20.9181,9.777-.2273.4547Zm6.139-113.0036c-.1528-.1491-.3057-.3019-.4548-.4547l44.11-43.8827.2274.4548Zm0,0a.6435.6435,0,0,1-.2274-.4547l65.71-24.5561v.4547Zm0,0a.6565.6565,0,0,1,.2274-.4547l34.333,84.1274-.2273.4547Zm0,0a.6565.6565,0,0,1,.2274-.4547l40.9268,28.8761-.2274.4548Zm14.5518,123.0079a.6724.6724,0,0,0-.2274-.4547l19.5539-38.88.4548.4547Zm26.375,42.0637a.6583.6583,0,0,0,.2274-.4547l-26.1477-42.0637-.4547.4547Zm-6.5937-80.9442c-.1529-.1491-.3057-.3019-.4548-.4547l6.5938-55.2513.4547.4548Zm-.2274-.4547-.2274-.2274L806.2343,439.94l.2273.2274Zm6.8211,81.3989.4548-.4547-6.8212-80.9442-.2273.4547Zm-6.5937-80.9442v-.4547l37.7436,25.2382v.4548Zm6.5937-55.2512c-.1528-.1491-.3056-.3019-.4547-.4548l24.7835-53.4322.2273.4547Zm0,136.1954a.6434.6434,0,0,1-.2273-.4547l30.9225-55.706.4547.4548Zm0-136.1954a.6583.6583,0,0,0,.2274-.4548L806.9164,439.94l-.4548.2274Zm24.5561,34.3331a.6585.6585,0,0,1,.4548-.2274V351.9472l-.4548.4547Zm0,0a.6585.6585,0,0,1,.4548-.2274l9.777,69.803-.4548.4547Z"/><path class="cls-7" d="M1007.9443,442.2956l45.9291,105.273,91.858-210.5459,5.6855-6.1391,6.3664,6.1391V559.6192l-4.3213,4.0927-3.8641-4.0927V350.4376h-.4547l-92.0866,209.1816H1050.69L959.0607,351.3471h-.4547V559.6192l-4.0927,4.0927-4.0927-4.0927V337.0227l5.457-6.1391,6.3663,6.1391Q967.9246,350.2121,1007.9443,442.2956Zm.2287,14.5518-.2287-.2274-52.5215,92.3128.4548.4547Zm-29.7869-75.26c-.1516-.1491-.3057-.302-.4548-.4548l-19.5539,51.1586.2286.4547Zm-19.78,51.1585a.6563.6563,0,0,0,.2261-.4547l49.567,24.3287-.2261.2274Zm0,32.2867a.6563.6563,0,0,1,.4547-.2273l24.7823,35.47-.4548.4548Zm0,79.3527v-.4548l85.0369-.2274v.4548ZM983.3882,500.73a.6606.6606,0,0,0,.2287-.4548l62.7545,43.4279-.2287.4548Zm80.0348,40.4721v-.4548l37.5175-3.6379.2261.4547Zm30.6963-67.9841-.2286-.2274,56.8429-64.8008.2286.4548Zm0,0a.2011.2011,0,0,1,.2262-.2274l56.8428,27.2846-.2261.4548Zm7.0473,64.3461a.654.654,0,0,1,.2286-.4547l-6.8211-64.1188-.4548.2274Zm0,0a.6462.6462,0,0,1-.2261-.4547l49.7931-36.8342.2286.4548Zm0,0V537.11l50.0217,20.4634-.2261.4547Zm49.7956-128.92V408.19l-29.7869,5.2295v.2274Z"/><path class="cls-7" d="M810.1821,588.6863c1.814-4.865,8.5435-21.7927,23.9991-75.4815,8.841-30.5981,18.3669-65.185,28.1057-99.4118,14.3455,4.2265,29.1539,12.46,42.9185,22.84a99.4493,99.4493,0,0,1,31.554,40.4594c5.0337,12.712,5.5339,22.5977,1.8285,34.9026-2.6386,8.584-6.7623,15.6621-12.8933,20.8892a26.28,26.28,0,0,1-22.6544,6.042c-.0369.1252-.0738.25-.11.376a43.1048,43.1048,0,0,1,18.7827,23.0861c3.5621,9.9139,3.7659,19.8191.658,31.8743-4.5621,17.4053-12.2946,32.3232-23.93,40.5918-11.5845,8.2683-25.7429,8.58-41.2361-1.6775C839.59,621.6252,822.9612,605.6145,810.1821,588.6863Zm43.45-131.3936c.036-.1308.0741-.2627.1122-.3955a215.81,215.81,0,0,1,31.1336,16.73c-.0383.1267-.0766.2527-.1147.3794A216.656,216.656,0,0,0,853.6323,457.2927Zm-13.1578,51.8289a.6468.6468,0,0,1-.0391-.4248c13.9781-11.69,29.303-24.5752,44.286-35.1477l.042.4575C869.781,484.5818,854.4548,497.4558,840.4745,509.1216ZM866.21,423.3411a.6216.6216,0,0,0,.2716-.3411c13.7373,36.3018,27.7612,77.0522,40.7705,112.4509q-.1287.1542-.2573.3079C893.9722,500.3372,879.9434,459.5979,866.21,423.3411Zm-5.5829,94.06c6.5317,2.8428,13.1719,5.8374,19.7774,8.81,15.3538,6.9725,27.3716,8.1009,35.9626,4.6617,8.6275-3.4317,14.2384-11.1958,17.6184-22.1121,3.3182-10.906,2.8065-20.1111-1.766-31.0393-4.6233-10.6523-13.6926-23.5718-29.1026-34.6338-11.9066-8.4314-24.5269-15.406-36.9069-19.7458-8.45,29.2087-16.787,58.865-24.7094,86.17C843.0729,510.1211,849.2137,512.43,860.6271,517.4009ZM827.4169,556.6c-3.8629,12.3633-7.5575,23.5859-11.0385,33.2522a200.3032,200.3032,0,0,0,42.979,36.4885c14.1021,8.782,26.5952,8.6555,36.619,1.9,10.0663-6.7617,16.8732-19.065,20.9126-34.1157,3.252-12.32,2.6568-22.3916-1.9159-32.3887-4.5856-9.949-13.5061-17.9226-27.4963-24.0772-16.1973-7.0739-32.9189-15.0149-48.01-21.1584C838.4242,519.9868,834.18,534.8394,827.4169,556.6Zm-6.4949,40q-.0408-.1341-.0811-.2681c10.5406-4.0195,22.7054-13.061,35.4114-24.2375q.0975.268.1955.5366C843.7034,583.7219,831.4976,592.6716,820.922,596.6Zm24.444-77.6455a.386.386,0,0,1,.3534-.0593c3.602,17.2815,7.2763,35.217,10.9957,53.45-.0892.0949-.1784.1906-.2673.2856C852.6979,554.311,848.9948,536.2974,845.366,518.9546Zm39.3974-44.948c-.0676-.1777-.1342-.3584-.1988-.5359,6.69-11.5911,13.3133-22.5964,19.7192-32.2805q.0951.279.19.5583C898.0726,451.4241,891.4523,462.4216,884.7634,474.0066Zm0,0a.7481.7481,0,0,0-.042-.4575,154.6865,154.6865,0,0,1,20.2113-4.0225c.0317.09.0634.18.095.27A155.9756,155.9756,0,0,0,884.7634,474.0066Zm0,0a.51.51,0,0,1,.2714-.3008c15.4756,16.05,30.574,33.3753,43.4309,46.9287q-.1127.127-.2256.2547C915.3568,507.3428,900.2435,490.0327,884.7634,474.0066Zm-28.3156,98.6245c-.0673-.1777-.132-.36-.1955-.5366,10.1614-10.6931,20.6687-22.8611,30.969-34.7652.0852.11.17.22.2555.33C877.1606,549.6309,866.6323,561.8726,856.4478,572.6311Zm0,0a.7024.7024,0,0,1-.0413-.4529,260.8494,260.8494,0,0,0,29.989-8.8283c.033.0859.0662.1723.0994.2583A259.9326,259.9326,0,0,1,856.4478,572.6311Zm0,0c.0376-.1218.0747-.2454.113-.3694,19.2472,14.2942,39.7162,27.3484,57.6505,32.449-.0349.1318-.07.2637-.1052.3953C896.1617,600.0107,875.6908,586.9478,856.4478,572.6311Zm0,0a.4671.4671,0,0,1,.2673-.2856c11.13,20.66,22.6656,41.7263,33.88,59.6823-.09.1189-.1795.2381-.2693.3562C879.1064,614.3918,867.572,593.303,856.4478,572.6311Zm48.58-102.8342a.2193.2193,0,0,0-.095-.27c2.8791-7.44,5.7131-14.5683,8.4882-21.28q.091.2773.1829.5547C910.8005,455.415,907.9373,462.4487,905.0277,469.7969Zm0,0a.3771.3771,0,0,1,.3539.0183c8.4366,19.1015,16.4781,37.4272,23.7772,53.0058q-.1122.1283-.2242.2574C921.593,507.4141,913.5068,488.9888,905.0277,469.7969Zm.5035.1145c.0353-.1143.0719-.2305.1092-.3472a107.9753,107.9753,0,0,1,27.5067,7.603q.0166.1928.0332.385A108.9041,108.9041,0,0,0,905.5312,469.9114Zm-19.0363,93.6968c.037-.1282.1085-.1731.2136-.1307q.4911-12.9858.9816-25.9433l-.2133.1247Q886.9862,550.6188,886.4949,563.6082Zm0,0-.0994-.2583a251.7066,251.7066,0,0,0,27.6676-3.8938q.019.2076.0385.4155A247.3645,247.3645,0,0,1,886.4949,563.6082Zm0,0c.0191-.0647.0379-.13.0571-.1946,9.5845,15.4726,19.0007,29.9165,27.803,41.3088q-.1244.1918-.2489.3836C905.3578,593.6243,896.0092,579.1252,886.4949,563.6082Z"/><line class="cls-7" x1="734.4775" y1="69.0028" x2="955.8552" y2="351.4502"/><line class="cls-7" x1="806.9978" y1="351.4502" x2="1043.6429" y2="69.0028"/><line class="cls-7" x1="893.5132" y1="430.3319" x2="869.3398" y2="69.0028"/><line class="cls-7" x1="997.8406" y1="418.8813" x2="1100.8957" y2="69.0028"/><line class="cls-7" x1="1094.5343" y1="473.5896" x2="1001.6575" y2="69.0028"/><line class="cls-7" x1="723.0269" y1="319.6431" x2="693.7643" y2="69.0028"/><line class="cls-7" x1="753.5618" y1="319.6431" x2="822.2652" y2="182.2362"/><line class="cls-7" x1="1023.2863" y1="331.0936" x2="940.5878" y2="191.1422"/><line class="cls-7" x1="917.6866" y1="301.8311" x2="971.1226" y2="250.9396"/><line class="cls-7" x1="908" y1="352" x2="885" y2="278"/></svg>